<?xml version="1.0" encoding="utf-8"?>
<!-- Generator: Adobe Illustrator 15.1.0, SVG Export Plug-In . SVG Version: 6.00 Build 0)  -->
<!DOCTYPE svg PUBLIC "-//W3C//DTD SVG 1.1//EN" "http://www.w3.org/Graphics/SVG/1.1/DTD/svg11.dtd">
<svg version="1.1" id="Layer_1" xmlns="http://www.w3.org/2000/svg" xmlns:xlink="http://www.w3.org/1999/xlink" x="0px" y="0px"
	 width="27px" height="30px" viewBox="0 0 27 30" enable-background="new 0 0 27 30" xml:space="preserve">
<path fill="#B0E5E6" d="M27,9.516c-0.006-0.501-0.26-0.966-0.677-1.24L14.45,0.485c-0.504-0.33-1.161-0.326-1.662,0.013
	c0,0-12.169,8.272-12.247,8.356C0.213,9.13,0,9.538,0,10v16.5C0,27.328,0.671,28,1.499,28h23.976c0.827,0,1.498-0.672,1.498-1.5
	C26.973,26.5,27,9.636,27,9.516z M13.643,3.543l9.166,6.014l-9.201,6.3L4.353,9.843L13.643,3.543z M2.997,25V12.538l9.816,6.379
	c0.249,0.162,0.532,0.242,0.816,0.242c0.295,0,0.59-0.088,0.846-0.262l9.5-6.505V25H2.997z"/>
</svg>
