<?xml version="1.0" encoding="utf-8"?>
<!-- Generator: Adobe Illustrator 15.1.0, SVG Export Plug-In . SVG Version: 6.00 Build 0)  -->
<!DOCTYPE svg PUBLIC "-//W3C//DTD SVG 1.1//EN" "http://www.w3.org/Graphics/SVG/1.1/DTD/svg11.dtd">
<svg version="1.1" id="Layer_1" xmlns="http://www.w3.org/2000/svg" xmlns:xlink="http://www.w3.org/1999/xlink" x="0px" y="0px"
	 width="27px" height="30px" viewBox="0 0 27 30" enable-background="new 0 0 27 30" xml:space="preserve">
<path fill="#B0E5E6" d="M26.976,28.564l-2-11c-0.147-0.816-0.931-1.353-1.744-1.207c-0.815,0.148-1.355,0.762-1.207,1.578L23.703,27
	H3.297l1.679-9.064c0.148-0.816-0.392-1.513-1.207-1.661c-0.815-0.146-1.597,0.433-1.744,1.248l-2,11.021
	c-0.079,0.438,0.039,0.732,0.323,1.073C0.633,29.959,1.055,30,1.5,30h24c0.445,0,0.867-0.031,1.152-0.373
	C26.937,29.287,27.055,29.002,26.976,28.564z"/>
<path fill="#B0E5E6" d="M21,7.563C21,3.387,17.644,0,13.5,0C9.357,0,6,3.387,6,7.563C6,13.111,13.5,22,13.5,22S21,13.258,21,7.563z
	 M10.506,7.667c0-1.667,1.34-3.019,2.994-3.019c1.653,0,2.994,1.352,2.994,3.019c0,1.668-1.341,3.02-2.994,3.02
	C11.846,10.687,10.506,9.335,10.506,7.667z"/>
</svg>
