<?xml version="1.0" encoding="utf-8"?>
<!-- Generator: Adobe Illustrator 15.1.0, SVG Export Plug-In . SVG Version: 6.00 Build 0)  -->
<!DOCTYPE svg PUBLIC "-//W3C//DTD SVG 1.1//EN" "http://www.w3.org/Graphics/SVG/1.1/DTD/svg11.dtd">
<svg version="1.1" id="Layer_1" xmlns="http://www.w3.org/2000/svg" xmlns:xlink="http://www.w3.org/1999/xlink" x="0px" y="0px"
	 width="181px" height="54px" viewBox="0 0 181 54" enable-background="new 0 0 181 54" xml:space="preserve">
<g>
	<g>
		<path fill="#219DAA" d="M101.291,15.445h4.934v8.564c1.477-0.993,3.121-1.489,4.934-1.489c5.561,0,8.34,3.128,8.34,9.383
			c0,6.776-3.184,10.164-9.551,10.164c-2.681,0-5.566-0.266-8.656-0.801V15.445z M106.225,37.544
			c1.129,0.359,2.438,0.539,3.928,0.539c2.979,0,4.469-2.104,4.469-6.311c0-3.438-1.285-5.157-3.854-5.157
			c-1.664,0-3.178,0.335-4.543,1.006V37.544z"/>
		<path fill="#219DAA" d="M122.291,35.979c0-3.885,2.83-5.826,8.489-5.826c1.328,0,2.656,0.123,3.984,0.371v-1.471
			c0-1.749-1.26-2.624-3.779-2.624c-2.136,0-4.505,0.311-7.112,0.931v-3.91c2.607-0.62,4.977-0.931,7.112-0.931
			c5.809,0,8.713,2.147,8.713,6.441v13.106h-2.867l-1.75-1.75c-1.7,1.168-3.575,1.75-5.622,1.75
			C124.68,42.067,122.291,40.038,122.291,35.979z M130.78,33.504c-2.37,0-3.556,0.807-3.556,2.421c0,1.737,0.992,2.605,2.979,2.605
			c1.639,0,3.158-0.508,4.562-1.526v-3.128C133.523,33.628,132.195,33.504,130.78,33.504z"/>
		<path fill="#219DAA" d="M144.353,41.138v-4.097c2.172,0.869,4.679,1.304,7.521,1.304c2.122,0,3.184-0.683,3.184-2.049
			c0-1.303-0.714-1.954-2.142-1.954h-3.537c-3.972,0-5.957-1.955-5.957-5.864c0-4.096,2.898-6.144,8.694-6.144
			c2.458,0,4.772,0.372,6.944,1.117v4.097c-2.172-0.869-4.531-1.304-7.074-1.304c-2.67,0-4.004,0.683-4.004,2.047
			c0,1.304,0.775,1.954,2.328,1.954h3.164c4.345,0,6.517,1.955,6.517,5.865c0,4.096-2.768,6.144-8.304,6.144
			C148.97,42.254,146.524,41.882,144.353,41.138z"/>
		<path fill="#219DAA" d="M171.684,22.52c5.932,0,8.898,3.028,8.898,9.084c0,0.807-0.056,1.613-0.168,2.42h-12.976
			c0,2.756,2.022,4.134,6.069,4.134c1.973,0,3.947-0.187,5.92-0.559v3.909c-1.725,0.373-3.822,0.559-6.293,0.559
			c-7.086,0-10.63-3.332-10.63-9.997C162.505,25.704,165.564,22.52,171.684,22.52z M167.438,30.6h8.341V30.45
			c0-2.705-1.365-4.058-4.096-4.058C169.076,26.393,167.662,27.794,167.438,30.6z"/>
	</g>
</g>
<g>
	<g>
		<path fill="#219DAA" d="M60.806,22.52v18.059c0,3.946-1.129,7.16-3.388,9.643l-3.873-2.699c1.551-1.676,2.327-3.99,2.327-6.943
			V22.52H60.806z M60.806,15.445v3.91h-4.934v-3.91H60.806z"/>
		<path fill="#219DAA" d="M73.708,22.52c5.933,0,8.899,3.028,8.899,9.084c0,0.807-0.056,1.613-0.168,2.42H69.463
			c0,2.756,2.023,4.134,6.069,4.134c1.973,0,3.947-0.187,5.92-0.559v3.909c-1.726,0.373-3.823,0.559-6.293,0.559
			c-7.087,0-10.63-3.332-10.63-9.997C64.53,25.704,67.589,22.52,73.708,22.52z M69.463,30.6h8.34V30.45
			c0-2.705-1.365-4.058-4.096-4.058C71.102,26.393,69.687,27.794,69.463,30.6z"/>
		<path fill="#219DAA" d="M86.033,15.445h4.394v7.075h4.915v3.91h-4.375v8.991c0,1.825,0.787,2.737,2.364,2.737h2.011v3.909h-4.395
			c-3.276,0-4.915-1.756-4.915-5.268V15.445z"/>
	</g>
</g>
<path fill="#FF9966" d="M39.269,29.941L22.451,1.681c-1.383-2.336-3.649-2.3-5.032,0.036L0.601,29.924
	C-0.783,32.259,0.306,34,3.021,34h33.828C39.564,34,40.653,32.277,39.269,29.941z M19.702,27.212c-3.208,0-5.806-2.601-5.806-5.807
	s2.598-5.805,5.806-5.805c3.209,0,5.806,2.599,5.806,5.805S22.911,27.212,19.702,27.212z"/>
<path fill="#E4684D" d="M25.741,48.081c0-3.208-2.598-5.805-5.806-5.805s-5.806,2.597-5.806,5.805c0,0.682,0.118,1.336,0.334,1.945
	c0.799,2.25,2.946,3.861,5.472,3.861C23.143,53.888,25.741,51.286,25.741,48.081z"/>
</svg>
